# xmcd
#
# Track frame offsets:
#	150
#	13814
#	32098
#	48384
#	64206
#	76517
#	94005
#	114563
#	126731
#	142566
#	156278
#	174739
#	189198
#	203239
#	214315
#	234286
#
# Disc length: 3278
#
# Revision: 1
# Processed by: cddbd v1.5.1PL0 Copyright (c) Steve Scherf et al.
# Submitted via: VisiTrax 2.9.5.180 - For more info visit www.synapsa.com
# Normalized: r0:DSETVAR1
#
DISCID=d60ccc10
DTITLE=Various Artist - CDX 214 May 1999
DYEAR=1999
DGENRE=
TTITLE0=James Prosser - Angels don't fly
TTITLE1=Claudia Church - Home in my heart (North Carolina)
TTITLE2=Sawyer Brown - I'm in love with her
TTITLE3=Monte Warden - It's only love
TTITLE4=Deryl Dodd - John Roland Wood
TTITLE5=Chris LeDoux - Life is a highway
TTITLE6=Alan Jackson - Little man
TTITLE7=Lee Ann Womack - (Now you see me) Now you don't
TTITLE8=Mindy McCready - One in a million
TTITLE9=Clinton Gregory - Rocking the country
TTITLE10=Mark Wills - She's in love
TTITLE11=Neal McCoy - The girls of summer
TTITLE12=Shana Petrone - This time
TTITLE13=Julie Reeves - Trouble is a woman
TTITLE14=Steve Wariner - Two teardrops
TTITLE15=Terry Lee Goffee - Going down in flames
EXTD=
EXTT0=
EXTT1=
EXTT2=
EXTT3=
EXTT4=
EXTT5=
EXTT6=
EXTT7=
EXTT8=
EXTT9=
EXTT10=
EXTT11=
EXTT12=
EXTT13=
EXTT14=
EXTT15=
PLAYORDER=
